<svg xmlns="http://www.w3.org/2000/svg" xmlns:xlink="http://www.w3.org/1999/xlink" width="500" zoomAndPan="magnify" viewBox="0 0 375 374.999991" height="500" preserveAspectRatio="xMidYMid meet" version="1.0"><defs><filter x="0%" y="0%" width="100%" xlink:type="simple" xlink:actuate="onLoad" height="100%" id="id1" xlink:show="other"><feColorMatrix values="0 0 0 0 1 0 0 0 0 1 0 0 0 0 1 0 0 0 1 0" color-interpolation-filters="sRGB"/></filter><g><g id="id2"/></g><mask id="id3"><g filter="url(#id1)"><rect x="-37.5" width="450" fill="rgb(0%, 0%, 0%)" y="-37.499999" height="449.999989" fill-opacity="0.9176"/></g></mask><clipPath id="id4"><path d="M 0.316406 0.464844 L 142.816406 0.464844 L 142.816406 106.214844 L 0.316406 106.214844 Z M 0.316406 0.464844 " clip-rule="nonzero"/></clipPath><clipPath id="id5"><path d="M 0.316406 46 L 18 46 L 18 106.214844 L 0.316406 106.214844 Z M 0.316406 46 " clip-rule="nonzero"/></clipPath><clipPath id="id6"><path d="M 125 46 L 142.816406 46 L 142.816406 106.214844 L 125 106.214844 Z M 125 46 " clip-rule="nonzero"/></clipPath><clipPath id="id7"><rect x="0" width="143" y="0" height="108"/></clipPath><mask id="id8"><g filter="url(#id1)"><rect x="-37.5" width="450" fill="rgb(0%, 0%, 0%)" y="-37.499999" height="449.999989" fill-opacity="0.9176"/></g></mask><clipPath id="id9"><rect x="0" width="205" y="0" height="50"/></clipPath></defs><g mask="url(#id3)"><g transform="matrix(1, 0, 0, 1, 116, 81)"><g clip-path="url(#id7)"><g clip-path="url(#id4)"><path fill="rgb(0%, 87.449646%, 99.21875%)" d="M 21.390625 60.792969 L 21.390625 106.203125 L 61.691406 106.203125 L 61.691406 88.078125 L 52.535156 78.949219 L 30.507812 56.984375 L 30.507812 42.175781 L 52.535156 64.140625 L 61.691406 73.269531 L 62.382812 73.957031 L 71.535156 83.085938 L 80.6875 73.957031 L 81.378906 73.269531 L 90.53125 64.140625 L 112.558594 42.175781 L 112.558594 56.984375 L 90.53125 78.949219 L 81.378906 88.078125 L 81.378906 106.203125 L 121.679688 106.203125 L 121.679688 60.792969 L 129.714844 52.78125 L 133.632812 48.871094 L 142.785156 39.746094 L 142.785156 0.441406 L 104.03125 0.441406 L 94.878906 9.570312 L 80.65625 23.753906 L 71.5 32.882812 L 62.347656 23.753906 L 48.125 9.570312 L 38.972656 0.441406 L 0.21875 0.441406 L 0.21875 39.746094 L 9.371094 48.871094 L 13.289062 52.78125 L 21.324219 60.792969 Z M 71.535156 70.214844 L 62.382812 61.085938 L 61.691406 60.398438 L 52.535156 51.269531 L 41.078125 39.84375 L 31.925781 30.714844 L 21.355469 30.714844 L 21.355469 47.855469 L 13.324219 39.84375 L 9.40625 35.9375 L 9.40625 9.535156 L 35.21875 9.535156 L 56.421875 30.683594 L 61.65625 35.902344 L 62.347656 36.59375 L 71.5 45.71875 L 80.65625 36.59375 L 81.347656 35.902344 L 86.582031 30.683594 L 107.785156 9.535156 L 133.597656 9.535156 L 133.597656 35.9375 L 129.679688 39.84375 L 121.644531 47.855469 L 121.644531 30.714844 L 111.078125 30.714844 L 101.925781 39.84375 L 90.464844 51.269531 L 81.3125 60.398438 L 80.621094 61.085938 L 71.46875 70.214844 Z M 90.53125 91.886719 L 90.53125 97.105469 L 112.558594 97.105469 L 112.558594 69.917969 Z M 52.570312 91.886719 L 52.570312 97.105469 L 30.542969 97.105469 L 30.542969 69.917969 Z M 52.570312 91.886719 " fill-opacity="1" fill-rule="evenodd"/></g><g clip-path="url(#id5)"><path fill="rgb(74.119568%, 74.899292%, 75.689697%)" d="M 1.007812 106.203125 L 17.273438 106.203125 L 17.273438 97.074219 L 9.46875 97.074219 L 9.46875 55.832031 L 0.316406 46.707031 L 0.316406 106.203125 Z M 1.007812 106.203125 " fill-opacity="1" fill-rule="evenodd"/></g><g clip-path="url(#id6)"><path fill="rgb(74.119568%, 74.899292%, 75.689697%)" d="M 142.058594 106.203125 L 125.761719 106.203125 L 125.761719 97.074219 L 133.597656 97.074219 L 133.597656 55.832031 L 142.75 46.707031 L 142.75 106.203125 Z M 142.058594 106.203125 " fill-opacity="1" fill-rule="evenodd"/></g></g></g></g><g mask="url(#id8)"><g transform="matrix(1, 0, 0, 1, 87, 198)"><g clip-path="url(#id9)"><g fill="rgb(74.119568%, 74.899292%, 75.689697%)" fill-opacity="1"><g transform="translate(0.481918, 39.285292)"><g><path d="M 23.4375 0 L 23.4375 -0.8125 L 25.5625 -0.8125 C 25.976562 -0.8125 26.1875 -0.988281 26.1875 -1.34375 L 26.1875 -24.34375 L 16.78125 0 L 15.25 0 L 5.84375 -23.671875 L 5.84375 -1.4375 C 5.84375 -1.019531 6.054688 -0.8125 6.484375 -0.8125 L 8.59375 -0.8125 L 8.59375 0 L 1.578125 0 L 1.578125 -0.8125 L 3.6875 -0.8125 C 4.101562 -0.8125 4.3125 -1.019531 4.3125 -1.4375 L 4.3125 -27 C 4.3125 -27.363281 4.101562 -27.546875 3.6875 -27.546875 L 1.578125 -27.546875 L 1.578125 -28.34375 L 8.015625 -28.34375 L 17.1875 -5.078125 L 26.1875 -28.34375 L 32.625 -28.34375 L 32.625 -27.546875 L 30.515625 -27.546875 C 30.085938 -27.546875 29.875 -27.332031 29.875 -26.90625 L 29.875 -1.34375 C 29.875 -0.988281 30.085938 -0.8125 30.515625 -0.8125 L 32.625 -0.8125 L 32.625 0 Z M 23.4375 0 "/></g></g></g><g fill="rgb(74.119568%, 74.899292%, 75.689697%)" fill-opacity="1"><g transform="translate(38.146884, 39.285292)"><g><path d="M 25.921875 0 L 16.6875 0 L 16.6875 -0.8125 L 19.625 -0.8125 L 16.46875 -9.5 L 6.5625 -9.5 L 3.421875 -0.8125 L 6.34375 -0.8125 L 6.34375 0 L -0.453125 0 L -0.453125 -0.8125 L 1.21875 -0.8125 C 1.632812 -0.8125 1.914062 -1.019531 2.0625 -1.4375 L 11.96875 -28.34375 L 13.5 -28.34375 L 23.40625 -1.4375 C 23.550781 -1.019531 23.832031 -0.8125 24.25 -0.8125 L 25.921875 -0.8125 Z M 11.5625 -23.046875 L 7.0625 -10.75 L 16.015625 -10.75 Z M 11.5625 -23.046875 "/></g></g></g><g fill="rgb(74.119568%, 74.899292%, 75.689697%)" fill-opacity="1"><g transform="translate(67.081852, 39.285292)"><g><path d="M 22.453125 0 L 22.40625 -0.625 C 22.375 -1.257812 22.132812 -1.578125 21.6875 -1.578125 C 21.445312 -1.578125 21.015625 -1.410156 20.390625 -1.078125 C 18.429688 0.00390625 16.460938 0.546875 14.484375 0.546875 C 10.703125 0.546875 7.601562 -0.757812 5.1875 -3.375 C 2.78125 -5.988281 1.578125 -9.582031 1.578125 -14.15625 C 1.578125 -18.726562 2.769531 -22.328125 5.15625 -24.953125 C 7.539062 -27.578125 10.648438 -28.890625 14.484375 -28.890625 C 16.441406 -28.890625 18.394531 -28.394531 20.34375 -27.40625 C 20.96875 -27.070312 21.414062 -26.90625 21.6875 -26.90625 C 22.132812 -26.90625 22.375 -27.222656 22.40625 -27.859375 L 22.453125 -28.625 L 23.3125 -28.625 L 23.3125 -20.828125 L 22.5 -20.828125 C 22.226562 -23.140625 21.363281 -24.84375 19.90625 -25.9375 C 18.457031 -27.03125 16.648438 -27.578125 14.484375 -27.578125 C 11.753906 -27.578125 9.554688 -26.378906 7.890625 -23.984375 C 6.234375 -21.585938 5.40625 -18.300781 5.40625 -14.125 C 5.40625 -9.957031 6.242188 -6.6875 7.921875 -4.3125 C 9.597656 -1.945312 11.785156 -0.765625 14.484375 -0.765625 C 16.648438 -0.765625 18.457031 -1.3125 19.90625 -2.40625 C 21.363281 -3.5 22.226562 -5.203125 22.5 -7.515625 L 23.3125 -7.515625 L 23.3125 0 Z M 22.453125 0 "/></g></g></g><g fill="rgb(74.119568%, 74.899292%, 75.689697%)" fill-opacity="1"><g transform="translate(95.881829, 39.285292)"><g><path d="M 1.578125 0 L 1.578125 -0.8125 L 3.6875 -0.8125 C 4.101562 -0.8125 4.3125 -0.988281 4.3125 -1.34375 L 4.3125 -27 C 4.3125 -27.363281 4.101562 -27.546875 3.6875 -27.546875 L 1.578125 -27.546875 L 1.578125 -28.34375 L 12.109375 -28.34375 C 14.359375 -28.34375 16.285156 -27.726562 17.890625 -26.5 C 19.492188 -25.269531 20.296875 -23.679688 20.296875 -21.734375 C 20.296875 -20.234375 19.894531 -18.921875 19.09375 -17.796875 C 18.300781 -16.671875 17.25 -15.820312 15.9375 -15.25 C 17.820312 -14.832031 19.351562 -13.976562 20.53125 -12.6875 C 21.71875 -11.394531 22.3125 -9.675781 22.3125 -7.53125 C 22.3125 -5.382812 21.425781 -3.59375 19.65625 -2.15625 C 17.894531 -0.71875 15.753906 0 13.234375 0 Z M 13 -14.4375 L 8.015625 -14.4375 L 8.015625 -1.265625 L 13 -1.265625 C 14.800781 -1.265625 16.203125 -1.921875 17.203125 -3.234375 C 18.210938 -4.554688 18.71875 -6.101562 18.71875 -7.875 C 18.71875 -9.644531 18.210938 -11.179688 17.203125 -12.484375 C 16.203125 -13.785156 14.800781 -14.4375 13 -14.4375 Z M 11.15625 -27.09375 L 8.015625 -27.09375 L 8.015625 -15.5625 L 11.4375 -15.5625 C 13.195312 -15.5625 14.507812 -16.160156 15.375 -17.359375 C 16.25 -18.566406 16.6875 -19.972656 16.6875 -21.578125 C 16.6875 -23.179688 16.238281 -24.5 15.34375 -25.53125 C 14.445312 -26.570312 13.050781 -27.09375 11.15625 -27.09375 Z M 11.15625 -27.09375 "/></g></g></g><g fill="rgb(74.119568%, 74.899292%, 75.689697%)" fill-opacity="1"><g transform="translate(122.341803, 39.285292)"><g><path d="M 1.578125 0 L 1.578125 -0.8125 L 3.6875 -0.8125 C 4.101562 -0.8125 4.3125 -1.019531 4.3125 -1.4375 L 4.3125 -27 C 4.3125 -27.363281 4.101562 -27.546875 3.6875 -27.546875 L 1.578125 -27.546875 L 1.578125 -28.34375 L 15.84375 -28.34375 C 18.207031 -28.34375 19.867188 -28.476562 20.828125 -28.75 C 20.566406 -27.519531 20.4375 -25.8125 20.4375 -23.625 L 20.4375 -21.515625 L 19.390625 -21.515625 L 18.71875 -26.09375 C 18.65625 -26.757812 18.234375 -27.09375 17.453125 -27.09375 L 8.015625 -27.09375 L 8.015625 -14.8125 L 17.0625 -14.8125 C 17.414062 -14.8125 17.625 -15.019531 17.6875 -15.4375 L 17.90625 -18.21875 L 18.71875 -18.21875 L 18.71875 -10.125 L 17.90625 -10.125 L 17.6875 -12.921875 C 17.625 -13.335938 17.414062 -13.546875 17.0625 -13.546875 L 8.015625 -13.546875 L 8.015625 -1.265625 L 18.09375 -1.265625 C 18.875 -1.265625 19.289062 -1.59375 19.34375 -2.25 L 20.03125 -7.515625 L 21.0625 -7.515625 L 21.0625 -5.40625 C 21.0625 -2.757812 21.195312 -0.820312 21.46875 0.40625 C 20.507812 0.132812 18.84375 0 16.46875 0 Z M 1.578125 0 "/></g></g></g><g fill="rgb(74.119568%, 74.899292%, 75.689697%)" fill-opacity="1"><g transform="translate(149.071778, 39.285292)"><g><path d="M 25.921875 0 L 16.6875 0 L 16.6875 -0.8125 L 19.625 -0.8125 L 16.46875 -9.5 L 6.5625 -9.5 L 3.421875 -0.8125 L 6.34375 -0.8125 L 6.34375 0 L -0.453125 0 L -0.453125 -0.8125 L 1.21875 -0.8125 C 1.632812 -0.8125 1.914062 -1.019531 2.0625 -1.4375 L 11.96875 -28.34375 L 13.5 -28.34375 L 23.40625 -1.4375 C 23.550781 -1.019531 23.832031 -0.8125 24.25 -0.8125 L 25.921875 -0.8125 Z M 11.5625 -23.046875 L 7.0625 -10.75 L 16.015625 -10.75 Z M 11.5625 -23.046875 "/></g></g></g><g fill="rgb(74.119568%, 74.899292%, 75.689697%)" fill-opacity="1"><g transform="translate(178.006743, 39.285292)"><g><path d="M 13.09375 -27.09375 L 13.09375 -1.34375 C 13.09375 -0.988281 13.300781 -0.8125 13.71875 -0.8125 L 17.640625 -0.8125 L 17.640625 0 L 4.859375 0 L 4.859375 -0.8125 L 8.78125 -0.8125 C 9.195312 -0.8125 9.40625 -0.988281 9.40625 -1.34375 L 9.40625 -27.09375 L 3.59375 -27.09375 C 2.820312 -27.09375 2.40625 -26.757812 2.34375 -26.09375 L 1.671875 -20.828125 L 0.625 -20.828125 L 0.625 -22.953125 C 0.625 -25.585938 0.488281 -27.519531 0.21875 -28.75 C 1.1875 -28.476562 2.851562 -28.34375 5.21875 -28.34375 L 17.28125 -28.34375 C 19.644531 -28.34375 21.3125 -28.476562 22.28125 -28.75 C 22.007812 -27.519531 21.875 -25.585938 21.875 -22.953125 L 21.875 -20.828125 L 20.828125 -20.828125 L 20.15625 -26.09375 C 20.09375 -26.757812 19.675781 -27.09375 18.90625 -27.09375 Z M 13.09375 -27.09375 "/></g></g></g></g></g></g></svg>